# xmcd CD database file
#
# Track frame offsets:
#	150
#	19447
#	39180
#	58480
#
# Disc length: 1040 seconds
#
# Revision: 0
# Processed by: cddbd v1.5.1PL2 Copyright (c) Steve Scherf et al.
# Submitted via: CDex 1.51
#
DISCID=32040e04
DTITLE=平田祭子 - さよならカオハガン
DYEAR=1900
DGENRE=J-POP
TTITLE0=さよならカオハガン
TTITLE1=憂き潮
TTITLE2=さよならカオハガン（カラオケ）
TTITLE3=憂き潮（カラオケ）
EXTD=
EXTT0=
EXTT1=
EXTT2=
EXTT3=
PLAYORDER=
